<svg width="70" height="70" viewBox="0 0 70 70" fill="none" xmlns="http://www.w3.org/2000/svg">
<path fill-rule="evenodd" clip-rule="evenodd" d="M49.2188 36.9141C42.4277 36.9141 36.9141 42.4277 36.9141 49.2188C36.9141 56.0098 42.4277 61.5234 49.2188 61.5234C56.0098 61.5234 61.5234 56.0098 61.5234 49.2188C61.5234 42.4277 56.0098 36.9141 49.2188 36.9141ZM49.2188 38.5547C55.1042 38.5547 59.8828 43.3333 59.8828 49.2188C59.8828 55.1042 55.1042 59.8828 49.2188 59.8828C43.3333 59.8828 38.5547 55.1042 38.5547 49.2188C38.5547 43.3333 43.3333 38.5547 49.2188 38.5547Z" fill="white"/>
<path fill-rule="evenodd" clip-rule="evenodd" d="M46.7786 49.2472C46.7775 49.2702 46.7764 49.2921 46.7764 49.315C46.7764 50.645 47.8559 51.7256 49.187 51.7256C49.2165 51.7256 49.2461 51.7235 49.2767 51.7202L54.9642 51.0967C55.9212 51.0716 56.6945 50.283 56.6945 49.315C56.6945 48.3471 55.9223 47.5585 54.9609 47.5333C54.9642 47.5333 51.4215 47.145 51.4215 47.145L50.9687 41.6424C50.949 40.6777 50.1582 39.8989 49.187 39.8989C48.2125 39.8989 47.4184 40.6831 47.4042 41.6544C47.4042 41.6424 46.7786 49.2472 46.7786 49.2472ZM48.417 49.3424L49.0426 41.7485C49.0437 41.7266 49.0448 41.7036 49.0448 41.6817C49.0448 41.603 49.1082 41.5396 49.187 41.5396C49.2647 41.5396 49.3292 41.603 49.3292 41.6817C49.3292 41.7036 49.3292 41.7266 49.3314 41.7485L49.8421 47.9533C49.8739 48.3449 50.1801 48.6588 50.5706 48.7014L54.822 49.1685C54.8526 49.1717 54.8822 49.1728 54.9117 49.1728C54.9904 49.1728 55.0539 49.2363 55.0539 49.315C55.0539 49.3938 54.9904 49.4572 54.9117 49.4572C54.8822 49.4572 54.8526 49.4583 54.822 49.4616L49.1498 50.0839C48.7517 50.0631 48.4345 49.7449 48.4181 49.3489L48.417 49.3424Z" fill="white"/>
<path fill-rule="evenodd" clip-rule="evenodd" d="M14.667 6.07688V11.748C14.667 13.1392 15.7979 14.2691 17.1892 14.2691C18.5815 14.2691 19.7114 13.1392 19.7114 11.748V6.07688C19.7114 4.68453 18.5815 3.55469 17.1892 3.55469C15.7979 3.55469 14.667 4.68453 14.667 6.07688ZM16.3076 6.07688C16.3076 5.59016 16.7025 5.19531 17.1892 5.19531C17.6759 5.19531 18.0707 5.59016 18.0707 6.07688V11.748C18.0707 12.2336 17.6759 12.6284 17.1892 12.6284C16.7025 12.6284 16.3076 12.2336 16.3076 11.748V6.07688Z" fill="white"/>
<path fill-rule="evenodd" clip-rule="evenodd" d="M23.3633 6.07688V11.748C23.3633 13.1392 24.4931 14.2691 25.8855 14.2691C27.2767 14.2691 28.4066 13.1392 28.4066 11.748V6.07688C28.4066 4.68453 27.2767 3.55469 25.8855 3.55469C24.4931 3.55469 23.3633 4.68453 23.3633 6.07688ZM25.0039 6.07688C25.0039 5.59016 25.3987 5.19531 25.8855 5.19531C26.3711 5.19531 26.7659 5.59016 26.7659 6.07688V11.748C26.7659 12.2336 26.3711 12.6284 25.8855 12.6284C25.3987 12.6284 25.0039 12.2336 25.0039 11.748V6.07688Z" fill="white"/>
<path fill-rule="evenodd" clip-rule="evenodd" d="M32.0596 6.07688V11.748C32.0596 13.1392 33.1894 14.2691 34.5807 14.2691C35.973 14.2691 37.1029 13.1392 37.1029 11.748V6.07688C37.1029 4.68453 35.973 3.55469 34.5807 3.55469C33.1894 3.55469 32.0596 4.68453 32.0596 6.07688ZM33.7002 6.07688C33.7002 5.59016 34.095 5.19531 34.5807 5.19531C35.0674 5.19531 35.4622 5.59016 35.4622 6.07688V11.748C35.4622 12.2336 35.0674 12.6284 34.5807 12.6284C34.095 12.6284 33.7002 12.2336 33.7002 11.748V6.07688Z" fill="white"/>
<path fill-rule="evenodd" clip-rule="evenodd" d="M40.7549 6.07688V11.748C40.7549 13.1392 41.8847 14.2691 43.2771 14.2691C44.6683 14.2691 45.7982 13.1392 45.7982 11.748V6.07688C45.7982 4.68453 44.6683 3.55469 43.2771 3.55469C41.8847 3.55469 40.7549 4.68453 40.7549 6.07688ZM42.3955 6.07688C42.3955 5.59016 42.7904 5.19531 43.2771 5.19531C43.7627 5.19531 44.1575 5.59016 44.1575 6.07688V11.748C44.1575 12.2336 43.7627 12.6284 43.2771 12.6284C42.7904 12.6284 42.3955 12.2336 42.3955 11.748V6.07688Z" fill="white"/>
<path fill-rule="evenodd" clip-rule="evenodd" d="M17.1084 28.3259H43.3584C43.8112 28.3259 44.1787 27.9584 44.1787 27.5056C44.1787 27.0528 43.8112 26.6853 43.3584 26.6853H17.1084C16.6556 26.6853 16.2881 27.0528 16.2881 27.5056C16.2881 27.9584 16.6556 28.3259 17.1084 28.3259Z" fill="white"/>
<path fill-rule="evenodd" clip-rule="evenodd" d="M17.1084 37.0759H39.1661C39.6189 37.0759 39.9864 36.7084 39.9864 36.2556C39.9864 35.8028 39.6189 35.4353 39.1661 35.4353H17.1084C16.6556 35.4353 16.2881 35.8028 16.2881 36.2556C16.2881 36.7084 16.6556 37.0759 17.1084 37.0759Z" fill="white"/>
<path fill-rule="evenodd" clip-rule="evenodd" d="M17.1084 45.8259H29.5312C29.984 45.8259 30.3515 45.4584 30.3515 45.0056C30.3515 44.5528 29.984 44.1853 29.5312 44.1853H17.1084C16.6556 44.1853 16.2881 44.5528 16.2881 45.0056C16.2881 45.4584 16.6556 45.8259 17.1084 45.8259Z" fill="white"/>
<path fill-rule="evenodd" clip-rule="evenodd" d="M49.2188 31.9922C39.7108 31.9922 31.9922 39.7108 31.9922 49.2188C31.9922 58.7267 39.7108 66.4453 49.2188 66.4453C58.7267 66.4453 66.4453 58.7267 66.4453 49.2188C66.4453 39.7108 58.7267 31.9922 49.2188 31.9922ZM49.2188 33.6328C57.8211 33.6328 64.8047 40.6164 64.8047 49.2188C64.8047 57.8211 57.8211 64.8047 49.2188 64.8047C40.6164 64.8047 33.6328 57.8211 33.6328 49.2188C33.6328 40.6164 40.6164 33.6328 49.2188 33.6328Z" fill="white"/>
<path fill-rule="evenodd" clip-rule="evenodd" d="M47.8198 66.36C48.2234 66.2878 48.511 65.928 48.4935 65.5178C48.476 65.1087 48.1588 64.7741 47.7498 64.7358C39.8354 63.9964 33.6327 57.3256 33.6327 49.2187C33.6327 40.6164 40.6163 33.6328 49.2187 33.6328C49.923 33.6328 50.6176 33.6798 51.2979 33.7706C51.532 33.8012 51.7682 33.7301 51.9465 33.5748C52.1248 33.4184 52.2265 33.1942 52.2265 32.9569V13.4487C52.2265 12.028 51.6621 10.6651 50.657 9.66108C49.6529 8.65593 48.2901 8.09155 46.8693 8.09155H44.9782C44.5254 8.09155 44.1579 8.45905 44.1579 8.91187V11.748C44.1579 12.2336 43.763 12.6284 43.2774 12.6284C42.7907 12.6284 42.3959 12.2336 42.3959 11.748V8.91187C42.3959 8.45905 42.0295 8.09155 41.5755 8.09155H36.2829C35.8301 8.09155 35.4626 8.45905 35.4626 8.91187V11.748C35.4626 12.2336 35.0677 12.6284 34.581 12.6284C34.0954 12.6284 33.7005 12.2336 33.7005 11.748V8.91187C33.7005 8.45905 33.333 8.09155 32.8802 8.09155H27.5865C27.1337 8.09155 26.7662 8.45905 26.7662 8.91187V11.748C26.7662 12.2336 26.3713 12.6284 25.8857 12.6284C25.399 12.6284 25.0041 12.2336 25.0041 11.748V8.91187C25.0041 8.45905 24.6366 8.09155 24.1838 8.09155H18.8912C18.4373 8.09155 18.0709 8.45905 18.0709 8.91187V11.748C18.0709 12.2336 17.676 12.6284 17.1893 12.6284C16.7026 12.6284 16.3077 12.2336 16.3077 11.748V8.91187C16.3077 8.45905 15.9413 8.09155 15.4874 8.09155H13.5974C12.1766 8.09155 10.8138 8.65593 9.80977 9.66108C8.80461 10.6651 8.24023 12.028 8.24023 13.4487V61.0881C8.24023 62.5089 8.80461 63.8717 9.80977 64.8758C10.8138 65.8809 12.1766 66.4453 13.5974 66.4453H46.8693C47.1898 66.4453 47.508 66.4169 47.8198 66.36ZM41.8774 64.8047H13.5974C12.612 64.8047 11.667 64.4131 10.9691 63.7164C10.2724 63.0186 9.88086 62.0736 9.88086 61.0881V13.4487C9.88086 12.4633 10.2724 11.5183 10.9691 10.8205C11.667 10.1237 12.612 9.73218 13.5974 9.73218H14.6671V11.748C14.6671 13.1392 15.798 14.2691 17.1893 14.2691C18.5816 14.2691 19.7115 13.1392 19.7115 11.748V9.73218H23.3635V11.748C23.3635 13.1392 24.4934 14.2691 25.8857 14.2691C27.277 14.2691 28.4068 13.1392 28.4068 11.748V9.73218H32.0599V11.748C32.0599 13.1392 33.1898 14.2691 34.581 14.2691C35.9734 14.2691 37.1032 13.1392 37.1032 11.748V9.73218H40.7552V11.748C40.7552 13.1392 41.8851 14.2691 43.2774 14.2691C44.6687 14.2691 45.7985 13.1392 45.7985 11.748V9.73218H46.8693C47.8548 9.73218 48.7998 10.1237 49.4976 10.8205C50.1943 11.5183 50.5859 12.4633 50.5859 13.4487V32.0458C50.1352 32.0108 49.6791 31.9922 49.2187 31.9922C39.7107 31.9922 31.9921 39.7108 31.9921 49.2187C31.9921 56.1017 36.0379 62.0473 41.8774 64.8047Z" fill="white"/>
<path fill-rule="evenodd" clip-rule="evenodd" d="M36.7521 58.5692C36.5968 58.3636 36.354 58.2422 36.0959 58.2422H9.06055C8.60773 58.2422 8.24023 58.6097 8.24023 59.0625V61.0881C8.24023 62.5089 8.80461 63.8717 9.80977 64.8758C10.8138 65.8809 12.1766 66.4453 13.5974 66.4453H46.8693C47.1898 66.4453 47.508 66.4169 47.8198 66.36C48.2234 66.2878 48.511 65.928 48.4935 65.5178C48.476 65.1088 48.1588 64.7741 47.7498 64.7358C43.2599 64.3158 39.3202 61.9861 36.7521 58.5692ZM35.6923 59.8828C37.3373 61.9653 39.4526 63.6595 41.8774 64.8047H13.5974C12.612 64.8047 11.667 64.4131 10.9691 63.7164C10.2724 63.0186 9.88086 62.0736 9.88086 61.0881V59.8828H35.6923Z" fill="white"/>
<path fill-rule="evenodd" clip-rule="evenodd" d="M8.24023 16.4062C8.24023 16.8591 8.60773 17.2266 9.06055 17.2266H51.4062C51.859 17.2266 52.2265 16.8591 52.2265 16.4062V13.4487C52.2265 12.028 51.6621 10.6651 50.657 9.66108C49.6529 8.65593 48.2901 8.09155 46.8693 8.09155H44.9782C44.5254 8.09155 44.1579 8.45905 44.1579 8.91187V11.748C44.1579 12.2336 43.763 12.6284 43.2774 12.6284C42.7907 12.6284 42.3959 12.2336 42.3959 11.748V8.91187C42.3959 8.45905 42.0295 8.09155 41.5755 8.09155H36.2829C35.8301 8.09155 35.4626 8.45905 35.4626 8.91187V11.748C35.4626 12.2336 35.0677 12.6284 34.581 12.6284C34.0954 12.6284 33.7005 12.2336 33.7005 11.748V8.91187C33.7005 8.45905 33.333 8.09155 32.8802 8.09155H27.5865C27.1337 8.09155 26.7662 8.45905 26.7662 8.91187V11.748C26.7662 12.2336 26.3713 12.6284 25.8857 12.6284C25.399 12.6284 25.0041 12.2336 25.0041 11.748V8.91187C25.0041 8.45905 24.6366 8.09155 24.1838 8.09155H18.8912C18.4373 8.09155 18.0709 8.45905 18.0709 8.91187V11.748C18.0709 12.2336 17.676 12.6284 17.1893 12.6284C16.7026 12.6284 16.3077 12.2336 16.3077 11.748V8.91187C16.3077 8.45905 15.9413 8.09155 15.4874 8.09155H13.5974C12.1766 8.09155 10.8138 8.65593 9.80977 9.66108C8.80461 10.6651 8.24023 12.028 8.24023 13.4487V16.4062ZM9.88086 15.5859V13.4487C9.88086 12.4633 10.2724 11.5183 10.9691 10.8205C11.667 10.1237 12.612 9.73218 13.5974 9.73218H14.6671V11.748C14.6671 13.1392 15.798 14.2691 17.1893 14.2691C18.5816 14.2691 19.7115 13.1392 19.7115 11.748V9.73218H23.3635V11.748C23.3635 13.1392 24.4934 14.2691 25.8857 14.2691C27.277 14.2691 28.4068 13.1392 28.4068 11.748V9.73218H32.0599V11.748C32.0599 13.1392 33.1898 14.2691 34.581 14.2691C35.9734 14.2691 37.1032 13.1392 37.1032 11.748V9.73218H40.7552V11.748C40.7552 13.1392 41.8851 14.2691 43.2774 14.2691C44.6687 14.2691 45.7985 13.1392 45.7985 11.748V9.73218H46.8693C47.8548 9.73218 48.7998 10.1237 49.4976 10.8205C50.1943 11.5183 50.5859 12.4633 50.5859 13.4487V15.5859H9.88086Z" fill="white"/>
</svg>
