<svg width="70" height="70" viewBox="0 0 70 70" fill="none" xmlns="http://www.w3.org/2000/svg">
<path d="M51.3335 70H18.6668C15.2644 69.9959 12.0026 68.6426 9.59673 66.2367C7.19088 63.8309 5.83751 60.569 5.8335 57.1666V31.5C5.83751 28.0976 7.19088 24.8357 9.59673 22.4299C12.0026 20.024 15.2644 18.6706 18.6668 18.6666H51.3335C54.7359 18.6706 57.9978 20.024 60.4036 22.4299C62.8094 24.8357 64.1628 28.0976 64.1668 31.5V57.1666C64.1628 60.569 62.8094 63.8309 60.4036 66.2367C57.9978 68.6426 54.7359 69.9959 51.3335 70ZM18.6668 21C15.883 21.003 13.2141 22.1103 11.2456 24.0787C9.27716 26.0472 8.16992 28.7161 8.16683 31.5V57.1666C8.16992 59.9504 9.27716 62.6194 11.2456 64.5878C13.2141 66.5563 15.883 67.6635 18.6668 67.6666H51.3335C54.1173 67.6635 56.7862 66.5563 58.7547 64.5878C60.7232 62.6194 61.8304 59.9504 61.8335 57.1666V31.5C61.8304 28.7161 60.7232 26.0472 58.7547 24.0787C56.7862 22.1103 54.1173 21.003 51.3335 21H18.6668Z" fill="white"/>
<path d="M51.3333 21C51.0239 21 50.7272 20.8771 50.5084 20.6583C50.2896 20.4395 50.1667 20.1428 50.1667 19.8333V11.6667C50.1639 9.19217 49.1797 6.81981 47.4299 5.07007C45.6802 3.32034 43.3078 2.33611 40.8333 2.33333H29.1667C26.6922 2.33611 24.3198 3.32034 22.5701 5.07007C20.8203 6.81981 19.8361 9.19217 19.8333 11.6667V19.8333C19.8333 20.1428 19.7104 20.4395 19.4916 20.6583C19.2728 20.8771 18.9761 21 18.6667 21C18.3572 21 18.0605 20.8771 17.8417 20.6583C17.6229 20.4395 17.5 20.1428 17.5 19.8333V11.6667C17.5034 8.57352 18.7337 5.60803 20.9208 3.42084C23.108 1.23365 26.0735 0.00339686 29.1667 0L40.8333 0C43.9265 0.00339686 46.892 1.23365 49.0792 3.42084C51.2663 5.60803 52.4966 8.57352 52.5 11.6667V19.8333C52.5 20.1428 52.3771 20.4395 52.1583 20.6583C51.9395 20.8771 51.6428 21 51.3333 21Z" fill="white"/>
<path d="M44.3333 21C44.0239 21 43.7272 20.8771 43.5084 20.6583C43.2896 20.4395 43.1667 20.1428 43.1667 19.8333V11.6667C43.1667 11.0478 42.9208 10.4543 42.4833 10.0168C42.0457 9.57917 41.4522 9.33333 40.8333 9.33333H29.1667C28.5478 9.33333 27.9543 9.57917 27.5168 10.0168C27.0792 10.4543 26.8333 11.0478 26.8333 11.6667V19.8333C26.8333 20.1428 26.7104 20.4395 26.4916 20.6583C26.2728 20.8771 25.9761 21 25.6667 21C25.3572 21 25.0605 20.8771 24.8417 20.6583C24.6229 20.4395 24.5 20.1428 24.5 19.8333V11.6667C24.5 10.429 24.9917 9.242 25.8668 8.36683C26.742 7.49167 27.929 7 29.1667 7H40.8333C42.071 7 43.258 7.49167 44.1332 8.36683C45.0083 9.242 45.5 10.429 45.5 11.6667V19.8333C45.5 20.1428 45.3771 20.4395 45.1583 20.6583C44.9395 20.8771 44.6428 21 44.3333 21Z" fill="white"/>
<path d="M35.0002 60.6667C33.7625 60.6667 32.5755 60.175 31.7003 59.2998C30.8252 58.4247 30.3335 57.2377 30.3335 56L31.4372 43.8118C29.2497 42.3558 26.8335 38.801 26.8335 36.1667V35C26.8353 33.1441 27.5734 31.3647 28.8858 30.0523C30.1981 28.7399 31.9775 28.0019 33.8335 28H36.1668C38.0228 28.0019 39.8022 28.7399 41.1145 30.0523C42.4269 31.3647 43.165 33.1441 43.1668 35V36.1667C43.1668 38.801 40.7507 42.3558 38.5643 43.8118L39.6668 55.895C39.678 56.5159 39.5656 57.1328 39.3364 57.7098C39.1071 58.2869 38.7654 58.8127 38.3313 59.2566C37.8971 59.7006 37.379 60.0538 36.8072 60.2959C36.2354 60.538 35.6211 60.664 35.0002 60.6667ZM33.8335 30.3333C32.5958 30.3333 31.4088 30.825 30.5337 31.7002C29.6585 32.5753 29.1668 33.7623 29.1668 35V36.1667C29.1668 38.15 31.5317 41.3957 33.1335 42.098C33.3588 42.1952 33.5477 42.3609 33.6733 42.5716C33.799 42.7823 33.855 43.0273 33.8335 43.2717L32.6668 56.105C32.6808 56.7238 32.9399 57.3118 33.3874 57.7395C33.8348 58.1673 34.4338 58.3998 35.0527 58.3858C35.6715 58.3719 36.2595 58.1127 36.6872 57.6653C37.1149 57.2179 37.3474 56.6188 37.3335 56L36.1668 43.2717C36.1448 43.028 36.2 42.7835 36.3246 42.5729C36.4492 42.3622 36.6368 42.1961 36.861 42.098C38.4687 41.3957 40.8335 38.15 40.8335 36.1667V35C40.8335 33.7623 40.3418 32.5753 39.4667 31.7002C38.5915 30.825 37.4045 30.3333 36.1668 30.3333H33.8335Z" fill="white"/>
<path d="M35 39.6666C34.3078 39.6666 33.6311 39.4614 33.0555 39.0768C32.4799 38.6922 32.0313 38.1456 31.7664 37.506C31.5015 36.8665 31.4322 36.1627 31.5673 35.4838C31.7023 34.8049 32.0356 34.1812 32.5251 33.6918C33.0146 33.2023 33.6383 32.8689 34.3172 32.7339C34.9961 32.5988 35.6999 32.6681 36.3394 32.933C36.9789 33.198 37.5256 33.6466 37.9101 34.2221C38.2947 34.7977 38.5 35.4744 38.5 36.1666C38.5 37.0949 38.1313 37.9851 37.4749 38.6415C36.8185 39.2979 35.9283 39.6666 35 39.6666ZM35 35C34.7693 35 34.5437 35.0684 34.3518 35.1966C34.16 35.3248 34.0104 35.507 33.9221 35.7202C33.8338 35.9333 33.8107 36.1679 33.8558 36.3942C33.9008 36.6205 34.0119 36.8284 34.175 36.9916C34.3382 37.1547 34.5461 37.2659 34.7724 37.3109C34.9987 37.3559 35.2333 37.3328 35.4465 37.2445C35.6596 37.1562 35.8419 37.0067 35.9701 36.8148C36.0982 36.6229 36.1667 36.3974 36.1667 36.1666C36.1667 35.8572 36.0438 35.5605 35.825 35.3417C35.6062 35.1229 35.3094 35 35 35Z" fill="white"/>
</svg>
