<svg width="70" height="70" viewBox="0 0 70 70" fill="none" xmlns="http://www.w3.org/2000/svg">
<path d="M2.625 22.738C2.6613 22.5917 2.73156 22.4561 2.8301 22.342C2.92863 22.228 3.05265 22.1388 3.19211 22.0817L50.645 2.66875C50.8801 2.57331 51.1434 2.57485 51.3774 2.67303C51.6114 2.7712 51.7969 2.95803 51.8935 3.19266L58.4062 19.1177C58.5023 19.3526 58.5011 19.616 58.403 19.85C58.3048 20.084 58.1178 20.2695 57.8829 20.3656L43.756 26.145C43.9923 27.2135 43.8912 28.329 43.4667 29.3377C43.2803 29.779 43.0357 30.1934 42.7394 30.5698L54.2598 52.9648H58.9258V44.6753C58.9259 44.4215 59.0268 44.1782 59.2062 43.9988C59.3857 43.8193 59.629 43.7184 59.8828 43.7183H66.4453C66.6991 43.7184 66.9424 43.8193 67.1219 43.9988C67.3013 44.1782 67.4022 44.4215 67.4023 44.6753V66.4453C67.4023 66.6991 67.3015 66.9426 67.122 67.122C66.9426 67.3015 66.6991 67.4023 66.4453 67.4023H59.8828C59.629 67.4023 59.3856 67.3015 59.2061 67.122C59.0266 66.9426 58.9258 66.6991 58.9258 66.4453V58.1602H51.6742C51.4985 58.1601 51.3262 58.1116 51.1762 58.02C51.0262 57.9285 50.9043 57.7974 50.8238 57.6412L37.9274 32.5686C37.4322 32.5104 36.9476 32.3834 36.4875 32.1913C35.4779 31.7697 34.6235 31.0458 34.0419 30.1191L21.6956 35.1701C21.4607 35.2661 21.1973 35.265 20.9633 35.1668C20.7292 35.0687 20.5438 34.8816 20.4477 34.6467L20.0807 33.7498L16.526 35.2023C16.2913 35.2983 16.028 35.2971 15.7941 35.199C15.5602 35.101 15.3748 34.9142 15.2786 34.6795L14.4091 32.5582L12.0952 33.5048C11.908 33.5815 11.7013 33.5969 11.5048 33.5488C11.3083 33.5006 11.1321 33.3914 11.0015 33.2369L2.82188 23.584C2.72466 23.4685 2.65614 23.3316 2.62193 23.1846C2.58771 23.0376 2.58877 22.8845 2.625 22.738ZM60.8398 65.4883H65.4883V45.6323H60.8398V65.4883ZM52.2577 56.2461H58.9258V54.8789H53.6758C53.4999 54.8789 53.3274 54.8304 53.1773 54.7387C53.0272 54.6471 52.9052 54.5158 52.8248 54.3594L41.253 31.8659C40.861 32.1035 40.4376 32.285 39.9952 32.4051L52.2577 56.2461ZM39.8437 30.4391C40.5338 30.1571 41.1126 29.6569 41.4917 29.0151C41.8708 28.3732 42.0293 27.6249 41.9431 26.8844L35.8586 29.3732C36.3166 29.9602 36.9535 30.3819 37.6727 30.5742C38.392 30.7666 39.1544 30.7191 39.8442 30.4391H39.8437ZM21.8564 33.0356L56.2734 18.9563L55.0402 15.9387L20.6221 30.0174L21.4823 32.1202C21.4851 32.1267 21.4895 32.1316 21.4922 32.1388C21.4949 32.1459 21.4955 32.1519 21.4982 32.1584L21.8564 33.0356ZM16.6879 33.069L19.3555 31.9752L18.8497 30.7393L16.1815 31.833L16.6879 33.069ZM12.0148 31.4699L54.3145 14.1673L53.8344 12.9927L50.4842 4.80266L5.1368 23.3516L12.0148 31.4699Z" fill="white"/>
<path d="M19.2743 21.1143L12.7462 23.7853C12.6299 23.8329 12.5053 23.857 12.3796 23.8565C12.2539 23.8559 12.1296 23.8306 12.0137 23.782C11.8978 23.7334 11.7926 23.6624 11.7041 23.5731C11.6156 23.4838 11.5456 23.378 11.498 23.2616C11.4504 23.1453 11.4262 23.0207 11.4268 22.895C11.4274 22.7693 11.4527 22.645 11.5013 22.5291C11.5499 22.4132 11.6209 22.308 11.7102 22.2195C11.7995 22.131 11.9053 22.061 12.0216 22.0134L18.5497 19.3425C18.7846 19.2464 19.0482 19.2476 19.2822 19.3458C19.5163 19.444 19.7018 19.6311 19.7979 19.8661C19.894 20.1011 19.8928 20.3646 19.7946 20.5987C19.6964 20.8328 19.5093 21.0182 19.2743 21.1143Z" fill="white"/>
</svg>
