<svg width="42" height="42" viewBox="0 0 42 42" fill="none" xmlns="http://www.w3.org/2000/svg">
<g clip-path="url(#clip0_9361_1324)">
<path d="M18.13 24.69L13.6713 20.2312C13.2954 19.8554 12.826 19.6764 12.2629 19.6941C11.6985 19.7105 11.2283 19.9067 10.8525 20.2825C10.4767 20.6583 10.2887 21.1367 10.2887 21.7175C10.2887 22.2983 10.4767 22.7767 10.8525 23.1525L16.695 28.995C17.0708 29.3708 17.5492 29.5587 18.13 29.5587C18.7108 29.5587 19.1892 29.3708 19.565 28.995L31.1988 17.3613C31.5746 16.9854 31.7543 16.5153 31.7379 15.9508C31.7201 15.3878 31.5233 14.9183 31.1475 14.5425C30.7717 14.1667 30.2933 13.9787 29.7125 13.9787C29.1317 13.9787 28.6533 14.1667 28.2775 14.5425L18.13 24.69ZM21 41.5C18.1642 41.5 15.4992 40.9615 13.005 39.8846C10.5108 38.809 8.34125 37.3488 6.49625 35.5038C4.65125 33.6588 3.19097 31.4892 2.1154 28.995C1.03847 26.5008 0.5 23.8358 0.5 21C0.5 18.1642 1.03847 15.4992 2.1154 13.005C3.19097 10.5108 4.65125 8.34125 6.49625 6.49625C8.34125 4.65125 10.5108 3.19028 13.005 2.11335C15.4992 1.03778 18.1642 0.5 21 0.5C23.8358 0.5 26.5008 1.03778 28.995 2.11335C31.4892 3.19028 33.6588 4.65125 35.5038 6.49625C37.3488 8.34125 38.809 10.5108 39.8846 13.005C40.9615 15.4992 41.5 18.1642 41.5 21C41.5 23.8358 40.9615 26.5008 39.8846 28.995C38.809 31.4892 37.3488 33.6588 35.5038 35.5038C33.6588 37.3488 31.4892 38.809 28.995 39.8846C26.5008 40.9615 23.8358 41.5 21 41.5ZM21 37.4C25.5442 37.4 29.4139 35.803 32.6091 32.6091C35.803 29.4139 37.4 25.5442 37.4 21C37.4 16.4558 35.803 12.5861 32.6091 9.39085C29.4139 6.19695 25.5442 4.6 21 4.6C16.4558 4.6 12.5868 6.19695 9.3929 9.39085C6.19763 12.5861 4.6 16.4558 4.6 21C4.6 25.5442 6.19763 29.4139 9.3929 32.6091C12.5868 35.803 16.4558 37.4 21 37.4Z" fill="#216DFF"/>
</g>
<defs>
<clipPath id="clip0_9361_1324">
<rect width="42" height="42" fill="white"/>
</clipPath>
</defs>
</svg>
