<svg width="80" height="80" viewBox="0 0 80 80" fill="none" xmlns="http://www.w3.org/2000/svg">
<path d="M21.25 33.8281H23.75V36.1719H21.25V33.8281Z" fill="white"/>
<path d="M56.25 43.8281H58.75V46.1719H56.25V43.8281Z" fill="white"/>
<path d="M53.6719 42.5V32.6406C53.6719 30.6367 52.1363 28.9947 50.1759 28.9023C49.6533 28.8772 49.1436 28.9608 48.6719 29.1438V27.5702C48.6719 25.5455 47.0247 23.8983 45 23.8983C44.497 23.8983 44.0173 24 43.5805 24.1839C43.2083 22.5506 41.7442 21.3281 40 21.3281C38.2558 21.3281 36.7917 22.5506 36.4195 24.1839C35.9827 24 35.503 23.8983 35 23.8983C32.9753 23.8983 31.3281 25.5455 31.3281 27.5702V34.003C30.8569 33.8202 30.3475 33.7366 29.8241 33.7617C27.8637 33.8539 26.3281 35.4961 26.3281 37.5V45C26.3281 52.5388 32.4612 58.6719 40 58.6719C47.5388 58.6719 53.6719 52.5388 53.6719 45H51.3281C51.3281 51.2464 46.2464 56.3281 40 56.3281C33.7536 56.3281 28.6719 51.2464 28.6719 45V37.5C28.6719 36.7623 29.2383 36.1356 29.9342 36.1028C30.3034 36.088 30.6514 36.2153 30.9166 36.4683C31.182 36.7216 31.3281 37.063 31.3281 37.4294V43.75H33.6719V27.5702C33.6719 26.8378 34.2677 26.242 35 26.242C35.7323 26.242 36.3281 26.8378 36.3281 27.5702V43.75H38.6719V25C38.6719 24.2677 39.2677 23.6719 40 23.6719C40.7323 23.6719 41.3281 24.2677 41.3281 25V43.75H43.6719V27.5702C43.6719 26.8378 44.2677 26.242 45 26.242C45.7323 26.242 46.3281 26.8378 46.3281 27.5702V43.75H48.6719V32.5702C48.6719 32.2034 48.8181 31.8622 49.0836 31.6089C49.3488 31.3559 49.6978 31.2277 50.0658 31.2434C50.7619 31.2762 51.3281 31.9031 51.3281 32.6406V42.5H53.6719Z" fill="white"/>
<path d="M80 56.3281H63.6719V38.8281H56.25V41.1719H61.3281V54.6725L57.0783 50.4262L55.4217 52.0842L61.3281 57.9856V61.3281H18.6719V45H16.3281V62.0145L13.6719 64.6708V36.25H11.3281V68.6719H68.6719V58.6719H80V56.3281ZM62.0145 63.6719L64.6708 66.3281H15.3292L17.9855 63.6719H62.0145ZM66.3281 64.6708L63.6719 62.0145V58.6719H66.3281V64.6708Z" fill="white"/>
<path d="M75 51.3334H77.5V53.6772H75V51.3334Z" fill="white"/>
<path d="M70 51.3334H72.5V53.6772H70V51.3334Z" fill="white"/>
<path d="M72.5 46.3334H75V48.6772H72.5V46.3334Z" fill="white"/>
<path d="M67.5 46.3334H70V48.6772H67.5V46.3334Z" fill="white"/>
<path d="M65 51.3334H67.5V53.6772H65V51.3334Z" fill="white"/>
<path d="M2.5 26.3228H5V28.6666H2.5V26.3228Z" fill="white"/>
<path d="M7.5 26.3228H10V28.6666H7.5V26.3228Z" fill="white"/>
<path d="M5 31.3228H7.5V33.6666H5V31.3228Z" fill="white"/>
<path d="M10 31.3228H12.5V33.6666H10V31.3228Z" fill="white"/>
<path d="M12.5 26.3228H15V28.6666H12.5V26.3228Z" fill="white"/>
<path d="M16.3281 41.1719H23.75V38.8281H18.6719V25.3275L22.9217 29.5738L24.5784 27.9158L18.6719 22.0144V18.6719H61.3281V36.25H63.6719V17.9855L66.3281 15.3292V43.75H68.6719V11.3281H11.3281V21.3281H0V23.6719H16.3281V41.1719ZM17.9855 16.3281L15.3292 13.6719H64.6708L62.0145 16.3281H17.9855ZM13.6719 21.3281V15.3292L16.3281 17.9855V21.3281H13.6719Z" fill="white"/>
</svg>
