<svg width="80" height="80" viewBox="0 0 80 80" fill="none" xmlns="http://www.w3.org/2000/svg">
<path d="M76.25 75H43.75C43.4185 75 43.1005 75.1317 42.8661 75.3661C42.6317 75.6005 42.5 75.9185 42.5 76.25C42.5 76.5815 42.6317 76.8995 42.8661 77.1339C43.1005 77.3683 43.4185 77.5 43.75 77.5H76.25C76.5815 77.5 76.8995 77.3683 77.1339 77.1339C77.3683 76.8995 77.5 76.5815 77.5 76.25C77.5 75.9185 77.3683 75.6005 77.1339 75.3661C76.8995 75.1317 76.5815 75 76.25 75Z" fill="white"/>
<path d="M45 62.5C45 61.7583 44.7801 61.0333 44.368 60.4166C43.956 59.7999 43.3703 59.3193 42.6851 59.0355C41.9998 58.7516 41.2458 58.6774 40.5184 58.8221C39.791 58.9668 39.1228 59.3239 38.5984 59.8484C38.0739 60.3728 37.7168 61.041 37.5721 61.7684C37.4274 62.4958 37.5016 63.2498 37.7855 63.9351C38.0693 64.6203 38.5499 65.206 39.1666 65.618C39.7833 66.0301 40.5083 66.25 41.25 66.25C42.2446 66.25 43.1984 65.8549 43.9017 65.1516C44.6049 64.4484 45 63.4946 45 62.5ZM40 62.5C40 62.2528 40.0733 62.0111 40.2107 61.8055C40.348 61.6 40.5432 61.4398 40.7716 61.3452C41.0001 61.2505 41.2514 61.2258 41.4939 61.274C41.7363 61.3223 41.9591 61.4413 42.1339 61.6161C42.3087 61.7909 42.4278 62.0137 42.476 62.2561C42.5242 62.4986 42.4995 62.7499 42.4048 62.9784C42.3102 63.2068 42.15 63.402 41.9445 63.5393C41.7389 63.6767 41.4972 63.75 41.25 63.75C40.9185 63.75 40.6005 63.6183 40.3661 63.3839C40.1317 63.1495 40 62.8315 40 62.5Z" fill="white"/>
<path d="M61.25 45C61.9404 45 62.5 44.4404 62.5 43.75C62.5 43.0596 61.9404 42.5 61.25 42.5C60.5596 42.5 60 43.0596 60 43.75C60 44.4404 60.5596 45 61.25 45Z" fill="white"/>
<path d="M66.25 45C66.9404 45 67.5 44.4404 67.5 43.75C67.5 43.0596 66.9404 42.5 66.25 42.5C65.5596 42.5 65 43.0596 65 43.75C65 44.4404 65.5596 45 66.25 45Z" fill="white"/>
<path d="M71.25 52.5H69.8612C70.6965 51.6875 71.3604 50.7158 71.8137 49.6423C72.2669 48.5688 72.5003 47.4153 72.5 46.25V43.75C72.5 43.4185 72.3683 43.1005 72.1339 42.8661C71.8995 42.6317 71.5815 42.5 71.25 42.5C70.9185 42.5 70.6005 42.6317 70.3661 42.8661C70.1317 43.1005 70 43.4185 70 43.75V46.25C70 47.9076 69.3415 49.4973 68.1694 50.6694C66.9973 51.8415 65.4076 52.5 63.75 52.5C62.0924 52.5 60.5027 51.8415 59.3306 50.6694C58.1585 49.4973 57.5 47.9076 57.5 46.25V40H71.25C71.5815 40 71.8995 39.8683 72.1339 39.6339C72.3683 39.3995 72.5 39.0815 72.5 38.75C72.498 37.093 71.8389 35.5044 70.6672 34.3328C69.4956 33.1611 67.907 32.502 66.25 32.5H56.25C55.9185 32.5 55.6005 32.6317 55.3661 32.8661C55.1317 33.1005 55 33.4185 55 33.75V46.25C54.9997 47.4153 55.2331 48.5688 55.6863 49.6423C56.1396 50.7158 56.8035 51.6875 57.6388 52.5H56.25C54.6315 52.5015 53.0774 53.1337 51.9175 54.2625C51.5822 53.7243 51.1156 53.2802 50.5615 52.9719C50.0075 52.6636 49.3841 52.5012 48.75 52.5H33.75C32.7554 52.5 31.8016 52.8951 31.0983 53.5984C30.3951 54.3016 30 55.2554 30 56.25V58.75C30 59.0815 30.1317 59.3995 30.3661 59.6339C30.6005 59.8683 30.9185 60 31.25 60C31.5815 60 31.8995 59.8683 32.1339 59.6339C32.3683 59.3995 32.5 59.0815 32.5 58.75V56.25C32.5 55.9185 32.6317 55.6005 32.8661 55.3661C33.1005 55.1317 33.4185 55 33.75 55H48.75C49.0815 55 49.3995 55.1317 49.6339 55.3661C49.8683 55.6005 50 55.9185 50 56.25V70H35C34.337 70 33.7011 69.7366 33.2322 69.2678C32.7634 68.7989 32.5 68.163 32.5 67.5V63.75C32.5 63.4185 32.3683 63.1005 32.1339 62.8661C31.8995 62.6317 31.5815 62.5 31.25 62.5C30.9185 62.5 30.6005 62.6317 30.3661 62.8661C30.1317 63.1005 30 63.4185 30 63.75V67.5C30.0052 68.3803 30.2451 69.2433 30.695 70H26.25C25.9185 70 25.6005 70.1317 25.3661 70.3661C25.1317 70.6005 25 70.9185 25 71.25V76.25C25 76.5815 25.1317 76.8995 25.3661 77.1339C25.6005 77.3683 25.9185 77.5 26.25 77.5H37.5C37.8315 77.5 38.1495 77.3683 38.3839 77.1339C38.6183 76.8995 38.75 76.5815 38.75 76.25C38.75 75.9185 38.6183 75.6005 38.3839 75.3661C38.1495 75.1317 37.8315 75 37.5 75H27.5V72.5H76.25C76.5815 72.5 76.8995 72.3683 77.1339 72.1339C77.3683 71.8995 77.5 71.5815 77.5 71.25C77.5 70.9185 77.3683 70.6005 77.1339 70.3661C76.8995 70.1317 76.5815 70 76.25 70H65C65 69.337 65.2634 68.7011 65.7322 68.2322C66.2011 67.7634 66.837 67.5 67.5 67.5H76.25C76.5815 67.5 76.8995 67.3683 77.1339 67.1339C77.3683 66.8995 77.5 66.5815 77.5 66.25V58.75C77.498 57.093 76.8389 55.5044 75.6672 54.3328C74.4956 53.1611 72.907 52.502 71.25 52.5ZM57.5 35H66.25C67.0253 35.0009 67.7814 35.2417 68.4145 35.6893C69.0476 36.1369 69.5268 36.7694 69.7862 37.5H57.5V35ZM66.25 54.625V55C66.25 55.663 65.9866 56.2989 65.5178 56.7678C65.0489 57.2366 64.413 57.5 63.75 57.5C63.087 57.5 62.4511 57.2366 61.9822 56.7678C61.5134 56.2989 61.25 55.663 61.25 55V54.625C62.8804 55.1167 64.6196 55.1167 66.25 54.625ZM52.5 70V67.5H57.2862C57.0268 68.2306 56.5476 68.8631 55.9145 69.3107C55.2814 69.7583 54.5253 69.9991 53.75 70H52.5ZM75 65H72.5V62.5C72.5 62.1685 72.3683 61.8505 72.1339 61.6161C71.8995 61.3817 71.5815 61.25 71.25 61.25C70.9185 61.25 70.6005 61.3817 70.3661 61.6161C70.1317 61.8505 70 62.1685 70 62.5V65H67.5C66.1739 65 64.9021 65.5268 63.9645 66.4645C63.0268 67.4021 62.5 68.6739 62.5 70H58.7175C59.5448 68.9245 59.9954 67.6068 60 66.25C60 65.9185 59.8683 65.6005 59.6339 65.3661C59.3995 65.1317 59.0815 65 58.75 65H57.5V61.25C57.5 60.9185 57.3683 60.6005 57.1339 60.3661C56.8995 60.1317 56.5815 60 56.25 60C55.9185 60 55.6005 60.1317 55.3661 60.3661C55.1317 60.6005 55 60.9185 55 61.25V65H52.5V58.75C52.5 57.7554 52.8951 56.8016 53.5984 56.0984C54.3016 55.3951 55.2554 55 56.25 55H58.75C58.75 56.3261 59.2768 57.5979 60.2145 58.5355C61.1521 59.4732 62.4239 60 63.75 60C65.0761 60 66.3479 59.4732 67.2855 58.5355C68.2232 57.5979 68.75 56.3261 68.75 55H71.25C72.2446 55 73.1984 55.3951 73.9016 56.0984C74.6049 56.8016 75 57.7554 75 58.75V65Z" fill="white"/>
<path d="M63.75 30C66.2336 29.9992 68.6706 29.3257 70.8021 28.0512C72.9337 26.7766 74.6802 24.9485 75.8563 22.761C77.0323 20.5735 77.5939 18.1084 77.4815 15.6274C77.369 13.1463 76.5867 10.7421 75.2175 8.67C75.1268 8.53309 75.0101 8.41539 74.8739 8.32362C74.7377 8.23185 74.5848 8.16779 74.4238 8.13512C74.2629 8.10244 74.0971 8.10179 73.9359 8.13319C73.7747 8.16459 73.6213 8.22743 73.4844 8.31812C73.3475 8.40882 73.2298 8.52559 73.138 8.66177C73.0463 8.79795 72.9822 8.95087 72.9495 9.11181C72.9169 9.27274 72.9162 9.43854 72.9476 9.59973C72.979 9.76092 73.0418 9.91434 73.1325 10.0512C74.6705 12.3789 75.2895 15.1946 74.8693 17.9527C74.4492 20.7107 73.02 23.2145 70.8587 24.9786C68.6974 26.7427 65.958 27.6414 63.1717 27.5005C60.3855 27.3596 57.7507 26.1892 55.7784 24.2161C53.8061 22.243 52.6367 19.6078 52.4969 16.8214C52.3571 14.0351 53.2569 11.2961 55.0218 9.13551C56.7868 6.97491 59.2911 5.54663 62.0493 5.12758C64.8075 4.70854 67.623 5.32858 69.95 6.8675C70.0867 6.96655 70.242 7.03689 70.4066 7.07428C70.5712 7.11167 70.7417 7.11534 70.9078 7.08507C71.0738 7.05479 71.232 6.9912 71.3728 6.89812C71.5136 6.80505 71.6341 6.68442 71.7271 6.54351C71.82 6.4026 71.8834 6.24433 71.9135 6.07824C71.9436 5.91215 71.9398 5.74169 71.9022 5.57713C71.8646 5.41257 71.7941 5.25733 71.6949 5.12076C71.5957 4.98419 71.4699 4.86912 71.325 4.7825C69.5362 3.59901 67.4952 2.85043 65.3654 2.59661C63.2355 2.34279 61.0758 2.59077 59.0589 3.32073C57.042 4.05068 55.2239 5.24236 53.7498 6.80051C52.2757 8.35866 51.1866 10.2401 50.5696 12.2943C49.9525 14.3485 49.8246 16.5187 50.196 18.6312C50.5675 20.7437 51.428 22.74 52.7088 24.4606C53.9896 26.1811 55.6552 27.5781 57.5723 28.54C59.4895 29.5018 61.6051 30.0018 63.75 30Z" fill="white"/>
<path d="M66.4009 18.5987C66.6481 18.5987 66.8897 18.5254 67.0952 18.388C67.3007 18.2506 67.4609 18.0554 67.5555 17.8271C67.6501 17.5987 67.6748 17.3474 67.6266 17.105C67.5784 16.8625 67.4594 16.6398 67.2846 16.465C66.3326 15.5551 65.0665 15.0474 63.7496 15.0474C62.4328 15.0474 61.1666 15.5551 60.2146 16.465C60.0952 16.5803 60 16.7182 59.9345 16.8707C59.869 17.0232 59.8345 17.1873 59.8331 17.3532C59.8316 17.5192 59.8632 17.6838 59.9261 17.8374C59.9889 17.9911 60.0818 18.1306 60.1991 18.248C60.3165 18.3654 60.4561 18.4582 60.6097 18.521C60.7633 18.5839 60.9279 18.6155 61.0939 18.6141C61.2598 18.6126 61.4239 18.5781 61.5764 18.5126C61.7289 18.4471 61.8668 18.3519 61.9821 18.2325C62.4582 17.7777 63.0912 17.5239 63.7496 17.5239C64.408 17.5239 65.0411 17.7777 65.5171 18.2325C65.7515 18.4669 66.0694 18.5987 66.4009 18.5987Z" fill="white"/>
<path d="M69.9372 15.0625C70.1844 15.0625 70.426 14.9891 70.6316 14.8518C70.8371 14.7144 70.9972 14.5192 71.0918 14.2908C71.1864 14.0625 71.2112 13.8112 71.163 13.5687C71.1148 13.3263 70.9957 13.1036 70.821 12.9288C68.944 11.0564 66.401 10.0048 63.7497 10.0048C61.0985 10.0048 58.5555 11.0564 56.6785 12.9288C56.5591 13.0441 56.4639 13.182 56.3984 13.3345C56.3328 13.487 56.2984 13.651 56.2969 13.817C56.2955 13.983 56.3271 14.1476 56.39 14.3012C56.4528 14.4548 56.5456 14.5944 56.663 14.7118C56.7804 14.8291 56.9199 14.9219 57.0735 14.9848C57.2272 15.0476 57.3918 15.0793 57.5577 15.0778C57.7237 15.0764 57.8877 15.0419 58.0402 14.9764C58.1927 14.9109 58.3307 14.8157 58.446 14.6963C59.8542 13.2925 61.7614 12.5043 63.7497 12.5043C65.7381 12.5043 67.6453 13.2925 69.0535 14.6963C69.2879 14.9307 69.6057 15.0624 69.9372 15.0625Z" fill="white"/>
<path d="M63.75 22.5C64.4404 22.5 65 21.9404 65 21.25C65 20.5596 64.4404 20 63.75 20C63.0596 20 62.5 20.5596 62.5 21.25C62.5 21.9404 63.0596 22.5 63.75 22.5Z" fill="white"/>
<path d="M26.2496 66.25C26.2496 65.9185 26.1179 65.6005 25.8835 65.3661C25.6491 65.1317 25.3311 65 24.9996 65H18.7496C16.7611 64.998 14.8546 64.2072 13.4485 62.8011C12.0424 61.395 11.2516 59.4885 11.2496 57.5V56.25C11.2496 55.9185 11.1179 55.6005 10.8835 55.3661C10.6491 55.1317 10.3311 55 9.9996 55H8.91835L12.4996 50.7037L16.0808 55H14.9996C14.6681 55 14.3501 55.1317 14.1157 55.3661C13.8813 55.6005 13.7496 55.9185 13.7496 56.25V57.5C13.7496 58.8261 14.2764 60.0978 15.2141 61.0355C16.1517 61.9732 17.4235 62.5 18.7496 62.5H24.9996C25.3311 62.5 25.6491 62.3683 25.8835 62.1339C26.1179 61.8995 26.2496 61.5815 26.2496 61.25C26.2496 60.9185 26.1179 60.6005 25.8835 60.3661C25.6491 60.1317 25.3311 60 24.9996 60H18.7496C18.0866 60 17.4507 59.7366 16.9818 59.2678C16.513 58.7989 16.2496 58.163 16.2496 57.5H18.7496C18.9873 57.5001 19.2202 57.4324 19.4208 57.3049C19.6214 57.1773 19.7815 56.9952 19.8823 56.7798C19.9831 56.5645 20.0204 56.3249 19.9898 56.0891C19.9592 55.8534 19.862 55.6312 19.7096 55.4487L13.4596 47.9487C13.3383 47.8145 13.1902 47.7071 13.0248 47.6337C12.8595 47.5602 12.6805 47.5223 12.4996 47.5223C12.3187 47.5223 12.1397 47.5602 11.9744 47.6337C11.809 47.7071 11.6609 47.8145 11.5396 47.9487L5.2896 55.4487C5.1372 55.6312 5.04001 55.8534 5.00942 56.0891C4.97882 56.3249 5.0161 56.5645 5.11688 56.7798C5.21765 56.9952 5.37775 57.1773 5.57838 57.3049C5.77901 57.4324 6.01185 57.5001 6.2496 57.5H8.7496C8.75258 60.1512 9.8071 62.6931 11.6818 64.5678C13.5565 66.4425 16.0983 67.497 18.7496 67.5H24.9996C25.3311 67.5 25.6491 67.3683 25.8835 67.1339C26.1179 66.8995 26.2496 66.5815 26.2496 66.25Z" fill="white"/>
<path d="M30 45C30.3315 45 30.6495 44.8683 30.8839 44.6339C31.1183 44.3995 31.25 44.0815 31.25 43.75C31.25 43.4185 31.1183 43.1005 30.8839 42.8661C30.6495 42.6317 30.3315 42.5 30 42.5H20V31.25C20 30.9185 19.8683 30.6005 19.6339 30.3661C19.3995 30.1317 19.0815 30 18.75 30H8.75C8.41848 30 8.10054 30.1317 7.86612 30.3661C7.6317 30.6005 7.5 30.9185 7.5 31.25V38.75C7.5 39.0815 7.6317 39.3995 7.86612 39.6339C8.10054 39.8683 8.41848 40 8.75 40C9.08152 40 9.39946 39.8683 9.63388 39.6339C9.8683 39.3995 10 39.0815 10 38.75V32.5H17.5V42.5H5V26.825L12.9625 20H42.5V27.5H40V23.75C40 23.4185 39.8683 23.1005 39.6339 22.8661C39.3995 22.6317 39.0815 22.5 38.75 22.5H23.75C23.4185 22.5 23.1005 22.6317 22.8661 22.8661C22.6317 23.1005 22.5 23.4185 22.5 23.75V28.75C22.5 29.0815 22.6317 29.3995 22.8661 29.6339C23.1005 29.8683 23.4185 30 23.75 30H42.5V32.5H23.75C23.4185 32.5 23.1005 32.6317 22.8661 32.8661C22.6317 33.1005 22.5 33.4185 22.5 33.75V38.75C22.5 39.0815 22.6317 39.3995 22.8661 39.6339C23.1005 39.8683 23.4185 40 23.75 40H42.5V42.5H35C34.6685 42.5 34.3505 42.6317 34.1161 42.8661C33.8817 43.1005 33.75 43.4185 33.75 43.75C33.75 44.0815 33.8817 44.3995 34.1161 44.6339C34.3505 44.8683 34.6685 45 35 45H43.75C44.0815 45 44.3995 44.8683 44.6339 44.6339C44.8683 44.3995 45 44.0815 45 43.75V18.75C45 18.4185 44.8683 18.1005 44.6339 17.8661C44.3995 17.6317 44.0815 17.5 43.75 17.5H41.15L40 3.64626C39.9739 3.33304 39.8308 3.04114 39.5991 2.82871C39.3675 2.61628 39.0643 2.49892 38.75 2.50001H33.75C33.4357 2.49892 33.1325 2.61628 32.9009 2.82871C32.6692 3.04114 32.5261 3.33304 32.5 3.64626L31.35 17.5H27.4L26.25 3.64626C26.2239 3.33304 26.0808 3.04114 25.8491 2.82871C25.6175 2.61628 25.3143 2.49892 25 2.50001H20C19.6857 2.49892 19.3825 2.61628 19.1509 2.82871C18.9192 3.04114 18.7761 3.33304 18.75 3.64626L17.6 17.5H12.5C12.2015 17.5 11.9128 17.6069 11.6862 17.8013L2.93625 25.3013C2.79943 25.4186 2.68961 25.5641 2.61431 25.7279C2.53901 25.8917 2.50001 26.0698 2.5 26.25V43.75C2.5 44.0815 2.6317 44.3995 2.86612 44.6339C3.10054 44.8683 3.41848 45 3.75 45H30ZM25 25H27.5V27.5H25V25ZM30 25H32.5V27.5H30V25ZM35 25H37.5V27.5H35V25ZM25 35H27.5V37.5H25V35ZM30 35H32.5V37.5H30V35ZM35 35H37.5V37.5H35V35ZM40 37.5V35H42.5V37.5H40ZM34.375 11.25L34.4812 10H38.0113L38.125 11.25L38.2288 12.5H34.275L34.375 11.25ZM37.6 5.00001L37.8087 7.50001H34.6913L34.9 5.00001H37.6ZM34.0675 15H38.4325L38.6413 17.5H33.8587L34.0675 15ZM20.625 11.25L20.7312 10H24.2613L24.375 11.25L24.4788 12.5H20.525L20.625 11.25ZM23.85 5.00001L24.0587 7.50001H20.9413L21.15 5.00001H23.85ZM20.3175 15H24.6825L24.8913 17.5H20.1087L20.3175 15Z" fill="white"/>
<path d="M11.25 25C10.9185 25 10.6005 25.1317 10.3661 25.3661C10.1317 25.6005 10 25.9185 10 26.25C10 26.5815 10.1317 26.8995 10.3661 27.1339C10.6005 27.3683 10.9185 27.5 11.25 27.5H18.75C19.0815 27.5 19.3995 27.3683 19.6339 27.1339C19.8683 26.8995 20 26.5815 20 26.25C20 25.9185 19.8683 25.6005 19.6339 25.3661C19.3995 25.1317 19.0815 25 18.75 25H11.25Z" fill="white"/>
</svg>
