<svg width="80" height="80" viewBox="0 0 80 80" fill="none" xmlns="http://www.w3.org/2000/svg">
<path d="M35.6739 15.7913C35.3703 15.9123 35.1261 16.1474 34.9938 16.4462C34.8614 16.7451 34.8514 17.0839 34.9658 17.39C35.0802 17.6962 35.31 17.9454 35.6059 18.0841C35.9018 18.2229 36.2403 18.2403 36.5489 18.1325C38.7725 17.2987 41.2228 17.2987 43.4464 18.1325C43.755 18.2403 44.0935 18.2229 44.3894 18.0841C44.6853 17.9454 44.9151 17.6962 45.0295 17.39C45.1439 17.0839 45.1338 16.7451 45.0015 16.4462C44.8691 16.1474 44.625 15.9123 44.3214 15.7913C41.5334 14.7476 38.4619 14.7476 35.6739 15.7913Z" fill="white"/>
<path d="M47.4737 13.0875C47.7539 13.0879 48.0261 12.994 48.2466 12.8211C48.4671 12.6482 48.623 12.4062 48.6895 12.134C48.756 11.8618 48.7291 11.5752 48.6131 11.3201C48.4971 11.0651 48.2988 10.8564 48.05 10.7275C45.5623 9.43877 42.8016 8.76611 40 8.76611C37.1983 8.76611 34.4376 9.43877 31.95 10.7275C31.8042 10.803 31.6748 10.9065 31.569 11.0321C31.4632 11.1576 31.3832 11.3028 31.3335 11.4592C31.2838 11.6157 31.2655 11.7804 31.2794 11.944C31.2934 12.1076 31.3395 12.2668 31.415 12.4125C31.4905 12.5583 31.594 12.6878 31.7195 12.7935C31.8451 12.8993 31.9902 12.9793 32.1467 13.029C32.3032 13.0787 32.4679 13.0971 32.6314 13.0831C32.795 13.0691 32.9542 13.023 33.1 12.9475C35.2323 11.8429 37.5986 11.2663 40 11.2663C42.4014 11.2663 44.7677 11.8429 46.9 12.9475C47.0773 13.0394 47.2741 13.0874 47.4737 13.0875Z" fill="white"/>
<path d="M29.6612 7.89375C32.7756 5.99549 36.3526 4.99131 40 4.99131C43.6473 4.99131 47.2243 5.99549 50.3387 7.89375C50.6222 8.06581 50.9623 8.11822 51.2844 8.03946C51.6065 7.96069 51.8841 7.7572 52.0562 7.47375C52.2283 7.1903 52.2807 6.85011 52.2019 6.52802C52.1231 6.20592 51.9196 5.92831 51.6362 5.75625C48.1306 3.62064 44.1049 2.49097 40 2.49097C35.8951 2.49097 31.8693 3.62064 28.3637 5.75625C28.0803 5.92831 27.8768 6.20592 27.798 6.52802C27.7192 6.85011 27.7716 7.1903 27.9437 7.47375C28.1158 7.7572 28.3934 7.96069 28.7155 8.03946C29.0376 8.11822 29.3778 8.06581 29.6612 7.89375Z" fill="white"/>
<path d="M40 77.5087C43.7621 77.5023 47.4219 76.2826 50.4356 74.0307C53.4494 71.7788 55.6564 68.6148 56.7287 65.0087H67.5C68.8261 65.0087 70.0979 64.4819 71.0355 63.5443C71.9732 62.6066 72.5 61.3348 72.5 60.0087C72.5 58.6826 71.9732 57.4109 71.0355 56.4732C70.0979 55.5355 68.8261 55.0087 67.5 55.0087H57.5V22.5087C57.5 22.1772 57.3683 21.8593 57.1339 21.6248C56.8995 21.3904 56.5815 21.2587 56.25 21.2587H23.75C23.4185 21.2587 23.1005 21.3904 22.8661 21.6248C22.6317 21.8593 22.5 22.1772 22.5 22.5087V60.0087C22.505 64.6485 24.3503 69.0968 27.6311 72.3776C30.9119 75.6584 35.3602 77.5038 40 77.5087ZM67.5 57.5087C68.163 57.5087 68.7989 57.7721 69.2678 58.241C69.7366 58.7098 70 59.3457 70 60.0087C70 60.6718 69.7366 61.3077 69.2678 61.7765C68.7989 62.2453 68.163 62.5087 67.5 62.5087H40C39.337 62.5087 38.7011 62.2453 38.2322 61.7765C37.7634 61.3077 37.5 60.6718 37.5 60.0087C37.5 59.3457 37.7634 58.7098 38.2322 58.241C38.7011 57.7721 39.337 57.5087 40 57.5087H67.5ZM40 65.0087H45.5713C44.5598 66.1447 43.2272 66.9467 41.7498 67.3085C40.2724 67.6703 38.72 67.5747 37.2981 67.0346C35.8762 66.4944 34.6519 65.5351 33.7874 64.2837C32.9228 63.0323 32.4588 61.5478 32.4567 60.0268C32.4546 58.5057 32.9145 57.0199 33.7757 55.7661C34.6368 54.5123 35.8584 53.5497 37.2788 53.0056C38.6992 52.4616 40.2513 52.3618 41.7297 52.7195C43.2081 53.0772 44.5429 53.8755 45.5575 55.0087H40C38.6739 55.0087 37.4021 55.5355 36.4645 56.4732C35.5268 57.4109 35 58.6826 35 60.0087C35 61.3348 35.5268 62.6066 36.4645 63.5443C37.4021 64.4819 38.6739 65.0087 40 65.0087ZM25 23.7587H55V55.0087H48.6438C47.5495 53.0886 45.8517 51.5835 43.8143 50.7272C41.7768 49.8709 39.5136 49.7114 37.3761 50.2734C35.2387 50.8354 33.3466 52.0875 31.9938 53.8352C30.641 55.5829 29.9032 57.7284 29.8949 59.9385C29.8866 62.1486 30.6083 64.2995 31.948 66.0573C33.2876 67.8151 35.1703 69.0814 37.3034 69.6594C39.4366 70.2374 41.7009 70.0949 43.7448 69.2539C45.7886 68.413 47.4976 66.9206 48.6062 65.0087H54.0925C52.9181 68.3436 50.6014 71.1553 47.5527 72.9457C44.5039 74.7361 40.9199 75.3898 37.4354 74.7909C33.9508 74.1921 30.7907 72.3793 28.5147 69.6737C26.2386 66.9681 24.9936 63.5443 25 60.0087V23.7587Z" fill="white"/>
<path d="M50 45.0087C50.3315 45.0087 50.6495 44.877 50.8839 44.6426C51.1183 44.4082 51.25 44.0902 51.25 43.7587V27.5087C51.25 27.1772 51.1183 26.8593 50.8839 26.6248C50.6495 26.3904 50.3315 26.2587 50 26.2587H30C29.6685 26.2587 29.3505 26.3904 29.1161 26.6248C28.8817 26.8593 28.75 27.1772 28.75 27.5087V43.7587C28.75 44.0902 28.8817 44.4082 29.1161 44.6426C29.3505 44.877 29.6685 45.0087 30 45.0087H50ZM38.75 42.5087H36.25V40.0087H38.75V42.5087ZM38.75 37.5087H36.25V35.0087H38.75V37.5087ZM43.75 42.5087H41.25V40.0087H43.75V42.5087ZM43.75 37.5087H41.25V35.0087H43.75V37.5087ZM48.75 42.5087H46.25V40.0087H48.75V42.5087ZM48.75 37.5087H46.25V35.0087H48.75V37.5087ZM31.25 28.7587H48.75V32.5087H31.25V28.7587ZM31.25 35.0087H33.75V37.5087H31.25V35.0087ZM31.25 40.0087H33.75V42.5087H31.25V40.0087Z" fill="white"/>
</svg>
