<svg xmlns="http://www.w3.org/2000/svg" xml:space="preserve" width="24" height="24" viewBox="0 0 612 612" fill="#002977">
    <path
        d="M553.821 0H58.181C26.1 0 .002 26.1.002 58.182v495.636C.002 585.9 26.1 612 58.181 612h495.641c32.079 0 58.177-26.1 58.177-58.182V58.182C611.998 26.1 585.9 0 553.821 0zm19.825 553.818c0 10.934-8.891 19.83-19.825 19.83H58.181c-10.934 0-19.827-8.896-19.827-19.83V58.182c0-10.935 8.893-19.83 19.827-19.83h495.641c10.934 0 19.825 8.895 19.825 19.83v495.636z" />
    <path
        d="M274.589 95.35H165.948c-10.59 0-19.176 8.585-19.176 19.176v382.947c0 10.592 8.586 19.176 19.176 19.176h108.641c10.59 0 19.176-8.585 19.176-19.176V114.527c0-10.592-8.586-19.177-19.176-19.177zm-19.177 382.947h-70.289V133.703h70.289v344.594zM446.051 95.35h-108.64c-10.59 0-19.176 8.585-19.176 19.176v382.947c0 10.592 8.586 19.176 19.176 19.176H446.05c10.59 0 19.176-8.585 19.176-19.176V114.527c.001-10.592-8.585-19.177-19.175-19.177zm-19.176 382.947h-70.287V133.703h70.287v344.594z" />
</svg>