<svg width="168" height="24" viewBox="0 0 168 24" fill="none" xmlns="http://www.w3.org/2000/svg">
<g clip-path="url(#clip0_9511_809)">
<g filter="url(#filter0_i_9511_809)">
<path d="M154.811 1.06226C155.306 0.0332835 156.694 0.0332848 157.188 1.06226L159.68 6.25014C159.874 6.65358 160.239 6.93415 160.661 7.00464L166.091 7.91108C167.168 8.09087 167.597 9.48886 166.826 10.3046L162.936 14.4173C162.633 14.7372 162.494 15.1912 162.561 15.6382L163.425 21.3862C163.596 22.5263 162.473 23.3903 161.502 22.8655L156.606 20.2193C156.225 20.0136 155.774 20.0136 155.393 20.2193L150.497 22.8655C149.526 23.3903 148.403 22.5263 148.574 21.3862L149.438 15.6382C149.505 15.1912 149.366 14.7372 149.064 14.4173L145.174 10.3046C144.402 9.48886 144.831 8.09087 145.908 7.91108L151.338 7.00464C151.761 6.93415 152.125 6.65358 152.319 6.25014L154.811 1.06226Z" fill="#E8E8E8"/>
</g>
</g>
<g clip-path="url(#clip1_9511_809)">
<g filter="url(#filter1_i_9511_809)">
<path d="M118.811 1.06226C119.306 0.0332835 120.694 0.0332848 121.188 1.06226L123.68 6.25014C123.874 6.65358 124.239 6.93415 124.661 7.00464L130.091 7.91108C131.168 8.09087 131.597 9.48886 130.826 10.3046L126.936 14.4173C126.633 14.7372 126.494 15.1912 126.561 15.6382L127.425 21.3862C127.596 22.5263 126.473 23.3903 125.502 22.8655L120.606 20.2193C120.225 20.0136 119.774 20.0136 119.393 20.2193L114.497 22.8655C113.526 23.3903 112.403 22.5263 112.574 21.3862L113.438 15.6382C113.505 15.1912 113.366 14.7372 113.064 14.4173L109.174 10.3046C108.402 9.48886 108.831 8.09087 109.908 7.91108L115.338 7.00464C115.761 6.93415 116.125 6.65358 116.319 6.25014L118.811 1.06226Z" fill="#E2D194"/>
</g>
</g>
<g clip-path="url(#clip2_9511_809)">
<g filter="url(#filter2_i_9511_809)">
<path d="M82.8112 1.06226C83.3055 0.0332835 84.6938 0.0332848 85.1881 1.06226L87.6802 6.25014C87.8741 6.65358 88.2387 6.93415 88.661 7.00464L94.091 7.91108C95.1679 8.09087 95.597 9.48886 94.8255 10.3046L90.9358 14.4173C90.6333 14.7372 90.4939 15.1912 90.5611 15.6382L91.4249 21.3862C91.5962 22.5263 90.473 23.3903 89.5019 22.8655L84.6058 20.2193C84.2251 20.0136 83.7742 20.0136 83.3935 20.2193L78.4974 22.8655C77.5263 23.3903 76.4031 22.5263 76.5744 21.3862L77.4382 15.6382C77.5054 15.1912 77.3661 14.7372 77.0636 14.4173L73.1738 10.3046C72.4023 9.48886 72.8313 8.09087 73.9083 7.91108L79.3383 7.00464C79.7605 6.93415 80.1253 6.65358 80.3191 6.25014L82.8112 1.06226Z" fill="#E2D194"/>
</g>
</g>
<g clip-path="url(#clip3_9511_809)">
<g filter="url(#filter3_i_9511_809)">
<path d="M46.8112 1.06226C47.3055 0.0332835 48.6938 0.0332848 49.1881 1.06226L51.6802 6.25014C51.8741 6.65358 52.2387 6.93415 52.661 7.00464L58.091 7.91108C59.1679 8.09087 59.597 9.48886 58.8255 10.3046L54.9358 14.4173C54.6333 14.7372 54.4939 15.1912 54.5611 15.6382L55.4249 21.3862C55.5962 22.5263 54.473 23.3903 53.5019 22.8655L48.6058 20.2193C48.2251 20.0136 47.7742 20.0136 47.3935 20.2193L42.4974 22.8655C41.5263 23.3903 40.4031 22.5263 40.5744 21.3862L41.4382 15.6382C41.5054 15.1912 41.3661 14.7372 41.0636 14.4173L37.1738 10.3046C36.4023 9.48886 36.8313 8.09087 37.9083 7.91108L43.3383 7.00464C43.7605 6.93415 44.1253 6.65358 44.3191 6.25014L46.8112 1.06226Z" fill="#E2D194"/>
</g>
</g>
<g clip-path="url(#clip4_9511_809)">
<g filter="url(#filter4_i_9511_809)">
<path d="M10.8112 1.06226C11.3055 0.0332835 12.6938 0.0332848 13.1881 1.06226L15.6802 6.25014C15.8741 6.65358 16.2387 6.93415 16.661 7.00464L22.091 7.91108C23.1679 8.09087 23.597 9.48886 22.8255 10.3046L18.9358 14.4173C18.6333 14.7372 18.4939 15.1912 18.5611 15.6382L19.4249 21.3862C19.5962 22.5263 18.473 23.3903 17.5019 22.8655L12.6058 20.2193C12.2251 20.0136 11.7742 20.0136 11.3935 20.2193L6.49736 22.8655C5.52625 23.3903 4.4031 22.5263 4.57442 21.3862L5.43821 15.6382C5.50538 15.1912 5.36606 14.7372 5.06358 14.4173L1.17383 10.3046C0.40233 9.48886 0.831336 8.09087 1.90832 7.91108L7.33829 7.00464C7.76054 6.93415 8.12529 6.65358 8.31909 6.25014L10.8112 1.06226Z" fill="#E2D194"/>
</g>
</g>
<defs>
<filter id="filter0_i_9511_809" x="144.781" y="-0.709473" width="22.4375" height="23.7322" filterUnits="userSpaceOnUse" color-interpolation-filters="sRGB">
<feFlood flood-opacity="0" result="BackgroundImageFix"/>
<feBlend mode="normal" in="SourceGraphic" in2="BackgroundImageFix" result="shape"/>
<feColorMatrix in="SourceAlpha" type="matrix" values="0 0 0 0 0 0 0 0 0 0 0 0 0 0 0 0 0 0 127 0" result="hardAlpha"/>
<feOffset dy="-1"/>
<feGaussianBlur stdDeviation="1"/>
<feComposite in2="hardAlpha" operator="arithmetic" k2="-1" k3="1"/>
<feColorMatrix type="matrix" values="0 0 0 0 0 0 0 0 0 0 0 0 0 0 0 0 0 0 0.21 0"/>
<feBlend mode="normal" in2="shape" result="effect1_innerShadow_9511_809"/>
</filter>
<filter id="filter1_i_9511_809" x="108.781" y="-0.709473" width="22.4375" height="23.7322" filterUnits="userSpaceOnUse" color-interpolation-filters="sRGB">
<feFlood flood-opacity="0" result="BackgroundImageFix"/>
<feBlend mode="normal" in="SourceGraphic" in2="BackgroundImageFix" result="shape"/>
<feColorMatrix in="SourceAlpha" type="matrix" values="0 0 0 0 0 0 0 0 0 0 0 0 0 0 0 0 0 0 127 0" result="hardAlpha"/>
<feOffset dy="-1"/>
<feGaussianBlur stdDeviation="1"/>
<feComposite in2="hardAlpha" operator="arithmetic" k2="-1" k3="1"/>
<feColorMatrix type="matrix" values="0 0 0 0 0 0 0 0 0 0 0 0 0 0 0 0 0 0 0.21 0"/>
<feBlend mode="normal" in2="shape" result="effect1_innerShadow_9511_809"/>
</filter>
<filter id="filter2_i_9511_809" x="72.7812" y="-0.709473" width="22.4375" height="23.7322" filterUnits="userSpaceOnUse" color-interpolation-filters="sRGB">
<feFlood flood-opacity="0" result="BackgroundImageFix"/>
<feBlend mode="normal" in="SourceGraphic" in2="BackgroundImageFix" result="shape"/>
<feColorMatrix in="SourceAlpha" type="matrix" values="0 0 0 0 0 0 0 0 0 0 0 0 0 0 0 0 0 0 127 0" result="hardAlpha"/>
<feOffset dy="-1"/>
<feGaussianBlur stdDeviation="1"/>
<feComposite in2="hardAlpha" operator="arithmetic" k2="-1" k3="1"/>
<feColorMatrix type="matrix" values="0 0 0 0 0 0 0 0 0 0 0 0 0 0 0 0 0 0 0.21 0"/>
<feBlend mode="normal" in2="shape" result="effect1_innerShadow_9511_809"/>
</filter>
<filter id="filter3_i_9511_809" x="36.7812" y="-0.709473" width="22.4375" height="23.7322" filterUnits="userSpaceOnUse" color-interpolation-filters="sRGB">
<feFlood flood-opacity="0" result="BackgroundImageFix"/>
<feBlend mode="normal" in="SourceGraphic" in2="BackgroundImageFix" result="shape"/>
<feColorMatrix in="SourceAlpha" type="matrix" values="0 0 0 0 0 0 0 0 0 0 0 0 0 0 0 0 0 0 127 0" result="hardAlpha"/>
<feOffset dy="-1"/>
<feGaussianBlur stdDeviation="1"/>
<feComposite in2="hardAlpha" operator="arithmetic" k2="-1" k3="1"/>
<feColorMatrix type="matrix" values="0 0 0 0 0 0 0 0 0 0 0 0 0 0 0 0 0 0 0.21 0"/>
<feBlend mode="normal" in2="shape" result="effect1_innerShadow_9511_809"/>
</filter>
<filter id="filter4_i_9511_809" x="0.78125" y="-0.709473" width="22.4375" height="23.7322" filterUnits="userSpaceOnUse" color-interpolation-filters="sRGB">
<feFlood flood-opacity="0" result="BackgroundImageFix"/>
<feBlend mode="normal" in="SourceGraphic" in2="BackgroundImageFix" result="shape"/>
<feColorMatrix in="SourceAlpha" type="matrix" values="0 0 0 0 0 0 0 0 0 0 0 0 0 0 0 0 0 0 127 0" result="hardAlpha"/>
<feOffset dy="-1"/>
<feGaussianBlur stdDeviation="1"/>
<feComposite in2="hardAlpha" operator="arithmetic" k2="-1" k3="1"/>
<feColorMatrix type="matrix" values="0 0 0 0 0 0 0 0 0 0 0 0 0 0 0 0 0 0 0.21 0"/>
<feBlend mode="normal" in2="shape" result="effect1_innerShadow_9511_809"/>
</filter>
<clipPath id="clip0_9511_809">
<rect width="24" height="24" fill="white" transform="translate(144)"/>
</clipPath>
<clipPath id="clip1_9511_809">
<rect width="24" height="24" fill="white" transform="translate(108)"/>
</clipPath>
<clipPath id="clip2_9511_809">
<rect width="24" height="24" fill="white" transform="translate(72)"/>
</clipPath>
<clipPath id="clip3_9511_809">
<rect width="24" height="24" fill="white" transform="translate(36)"/>
</clipPath>
<clipPath id="clip4_9511_809">
<rect width="24" height="24" fill="white"/>
</clipPath>
</defs>
</svg>
