<svg width="43" height="43" viewBox="0 0 43 43" fill="none" xmlns="http://www.w3.org/2000/svg">
<g clip-path="url(#clip0_8287_842)">
<path d="M21.5 43C33.3741 43 43 33.3741 43 21.5C43 9.62588 33.3741 0 21.5 0C9.62588 0 0 9.62588 0 21.5C0 33.3741 9.62588 43 21.5 43Z" fill="#039BE5"/>
<path d="M9.83839 21.0342L30.568 13.0415C31.5301 12.694 32.3704 13.2763 32.0586 14.7311L32.0604 14.7293L28.5308 31.3578C28.2693 32.5367 27.5687 32.8233 26.5887 32.2679L21.2137 28.3065L18.6211 30.8041C18.3345 31.0908 18.0926 31.3327 17.5372 31.3327L17.9188 25.8627L27.8805 16.8632C28.3141 16.4815 27.7837 16.2665 27.2122 16.6464L14.9016 24.3971L9.59472 22.7416C8.44268 22.3761 8.4176 21.5896 9.83839 21.0342Z" fill="white"/>
</g>
<defs>
<clipPath id="clip0_8287_842">
<rect width="43" height="43" fill="white"/>
</clipPath>
</defs>
</svg>
