<svg width="50" height="75" viewBox="0 0 50 75" fill="none" xmlns="http://www.w3.org/2000/svg">
<g clip-path="url(#clip0_9551_807)">
<path d="M11.5404 8.29916e-06H7.69193C6.68269 -0.00168453 5.68309 0.25561 4.75024 0.757191C3.8174 1.25877 2.96959 1.99481 2.25526 2.92324C1.54094 3.85167 0.974093 4.9543 0.587125 6.16812C0.200158 7.38194 0.000649025 8.68316 0 9.99743L0 64.9961C0.000649385 66.3107 0.200122 67.6123 0.587029 68.8264C0.973936 70.0406 1.5407 71.1437 2.25496 72.0726C2.96922 73.0016 3.81699 73.7382 4.74987 74.2405C5.68275 74.7428 6.68246 75.0009 7.69193 75H11.5404C12.5498 75.0009 13.5495 74.7428 14.4824 74.2405C15.4153 73.7382 16.2631 73.0016 16.9773 72.0726C17.6916 71.1437 18.2584 70.0406 18.6453 68.8264C19.0322 67.6123 19.2316 66.3107 19.2323 64.9961V9.99743C19.2297 7.34365 18.418 4.79982 16.9756 2.92513C15.5332 1.05043 13.5782 -0.00170161 11.5404 8.29916e-06ZM42.3081 8.29916e-06H38.4596C36.4218 -0.00170161 34.4668 1.05043 33.0244 2.92513C31.582 4.79982 30.7703 7.34365 30.7677 9.99743V64.9961C30.7684 66.3107 30.9678 67.6123 31.3547 68.8264C31.7416 70.0406 32.3084 71.1437 33.0227 72.0726C33.7369 73.0016 34.5847 73.7382 35.5176 74.2405C36.4505 74.7428 37.4502 75.0009 38.4596 75H42.3081C43.3175 75.0009 44.3173 74.7428 45.2501 74.2405C46.183 73.7382 47.0308 73.0016 47.745 72.0726C48.4593 71.1437 49.0261 70.0406 49.413 68.8264C49.7999 67.6123 49.9994 66.3107 50 64.9961V9.99743C49.9994 8.68316 49.7998 7.38194 49.4129 6.16812C49.0259 4.9543 48.4591 3.85167 47.7447 2.92324C47.0304 1.99481 46.1826 1.25877 45.2498 0.757191C44.3169 0.25561 43.3173 -0.00168453 42.3081 8.29916e-06Z" fill="#FAFAFA"/>
</g>
<defs>
<clipPath id="clip0_9551_807">
<rect width="50" height="75" fill="white"/>
</clipPath>
</defs>
</svg>
